Coordinates
version=1
nRows=22
nColumns=33
inDegrees=yes

Units are S.I. units (second, meters, Newtons, ...)
Angles are in degrees.

endheader
time	ground_thorax_rot_x	ground_thorax_rot_y	ground_thorax_rot_z	ground_thorax_tx	ground_thorax_ty	ground_thorax_tz	clav_prot_r	clav_elev_r	scapula_abduction_r	scapula_elevation_r	scapula_upward_rot_r	scapula_winging_r	shoulder_elv_r	plane_of_elev_r	axial_rot_r	elbow_flexion_r	pro_sup_r	wrist_flex_r	wrist_dev_r	clav_prot_l	clav_elev_l	scapula_abduction_l	scapula_elevation_l	scapula_upward_rot_l	scapula_winging_l	shoulder_elv_l	plane_of_elev_l	axial_rot_l	elbow_flexion_l	pro_sup_l	wrist_flex_l	wrist_dev_l	
8.3400	-16.737172	-38.066932	61.927490	-39.145677	786.682310	10.757364	8.942351	-45.000000	36.842811	-45.000000	-45.000000	-2256.762445	-1738.941995	26.943306	77.158854	1809.205622	29.418763	17.459961	10.695621	13.084664	37.225166	-28.257055	-45.000000	-45.000000	1876.201648	-3342.664637	139.839176	152.887745	366.954923	29.144975	8.417746	-18.592899	
8.3500	-16.826782	-38.031885	61.849439	-39.351729	786.595633	10.909141	8.718203	-45.000000	36.704425	-45.000000	-45.000000	-2256.774868	-1738.907399	26.962588	77.108724	1809.243880	29.509419	17.437301	10.712651	13.151307	37.225742	-28.370253	-45.000000	-45.000000	1876.225005	-3342.719232	139.823088	152.878283	366.959937	29.242443	8.379217	-18.612761	
8.3600	-16.919418	-37.974959	61.798305	-39.570896	786.495332	11.051949	8.451051	-45.000000	36.539652	-45.000000	-45.000000	-2256.820475	-1738.839288	26.977750	77.041245	1809.312793	29.597508	17.327887	10.746843	13.183139	37.156157	-28.566510	-45.000000	-45.000000	1876.289732	-3342.857553	139.825700	152.860981	366.938663	29.338186	8.354460	-18.660876	
8.3700	-16.975469	-37.947758	61.741264	-39.821903	786.363503	11.177976	8.315482	-45.000000	36.462174	-45.000000	-45.000000	-2256.831431	-1738.818292	26.982593	76.995669	1809.322425	29.680530	17.288113	10.774023	13.205950	37.132214	-28.646042	-45.000000	-45.000000	1876.311773	-3342.913608	139.813604	152.907773	366.931695	29.413131	8.343280	-18.686772	
8.3800	-17.015921	-37.925636	61.685834	-40.104449	786.200548	11.284488	8.243345	-45.000000	36.415832	-45.000000	-45.000000	-2256.842307	-1738.803466	26.987063	76.958739	1809.316872	29.754665	17.287666	10.791699	13.220983	37.136213	-28.669275	-45.000000	-45.000000	1876.310827	-3342.923938	139.795524	152.980502	366.939154	29.471552	8.339361	-18.704766	
8.3900	-17.042300	-37.910163	61.630052	-40.421101	786.004889	11.367952	8.219247	-45.000000	36.403268	-45.000000	-45.000000	-2256.850470	-1738.795737	26.990950	76.930975	1809.303183	29.823343	17.283727	10.812836	13.221501	37.128436	-28.666437	-45.000000	-45.000000	1876.317407	-3342.924694	139.770252	153.073550	366.941297	29.514565	8.348010	-18.721934	
8.4000	-17.067319	-37.888491	61.569400	-40.770583	785.779775	11.426911	8.219808	-45.000000	36.404898	-45.000000	-45.000000	-2256.863034	-1738.781045	26.995682	76.911805	1809.287087	29.885142	17.310469	10.823289	13.224036	37.145038	-28.639066	-45.000000	-45.000000	1876.308852	-3342.896612	139.744818	153.162353	366.952972	29.544859	8.357177	-18.732681	
8.4100	-17.098198	-37.857946	61.503872	-41.150135	785.530774	11.460849	8.214953	-45.000000	36.407865	-45.000000	-45.000000	-2256.882995	-1738.756218	27.002189	76.897853	1809.280469	29.946581	17.309324	10.840546	13.219921	37.136861	-28.632019	-45.000000	-45.000000	1876.321270	-3342.885706	139.716057	153.234319	366.948408	29.567587	8.372234	-18.748057	
8.4200	-17.134412	-37.820338	61.434172	-41.558719	785.262928	11.469899	8.214691	-45.000000	36.401777	-45.000000	-45.000000	-2256.908852	-1738.724579	27.014338	76.887160	1809.268206	30.005988	17.337607	10.843217	13.221372	37.158306	-28.618749	-45.000000	-45.000000	1876.320662	-3342.852401	139.699823	153.290075	366.953069	29.581991	8.380787	-18.756812	
8.4300	-17.174973	-37.779233	61.360222	-41.996465	784.980923	11.454485	8.213099	-45.000000	36.400945	-45.000000	-45.000000	-2256.934367	-1738.695273	27.026054	76.878905	1809.253806	30.071262	17.333491	10.854988	13.216237	37.149580	-28.630822	-45.000000	-45.000000	1876.347311	-3342.841318	139.684088	153.335063	366.941015	29.591088	8.393043	-18.768629	
8.4400	-17.221083	-37.728584	61.282708	-42.465198	784.688805	11.415720	8.213736	-45.000000	36.394244	-45.000000	-45.000000	-2256.963470	-1738.661200	27.039466	76.868819	1809.232737	30.138198	17.357432	10.853851	13.214821	37.169626	-28.639382	-45.000000	-45.000000	1876.358766	-3342.811367	139.680444	153.367168	366.939321	29.594412	8.398307	-18.776179	
8.4500	-17.274598	-37.673385	61.195745	-42.967831	784.390406	11.355300	8.214382	-45.000000	36.393011	-45.000000	-45.000000	-2256.993292	-1738.628992	27.054206	76.856847	1809.218703	30.211843	17.358480	10.861104	13.212857	37.163598	-28.662222	-45.000000	-45.000000	1876.395647	-3342.794255	139.664491	153.391935	366.926923	29.594025	8.405296	-18.785047	
8.4600	-17.331969	-37.613327	61.099984	-43.508689	784.089081	11.275502	8.215003	-45.000000	36.386602	-45.000000	-45.000000	-2257.023122	-1738.591857	27.078079	76.835937	1809.205226	30.287110	17.383911	10.856233	13.214401	37.178756	-28.681348	-45.000000	-45.000000	1876.425637	-3342.766739	139.658874	153.411871	366.925775	29.588276	8.406489	-18.791934	
8.4700	-17.395846	-37.551562	60.988180	-44.092868	783.787816	11.178952	8.214731	-45.000000	36.395948	-45.000000	-45.000000	-2257.047322	-1738.556554	27.106522	76.808161	1809.202047	30.368953	17.383616	10.861526	13.217033	37.159637	-28.718201	-45.000000	-45.000000	1876.488634	-3342.761509	139.639327	153.432688	366.913623	29.578181	8.410777	-18.800213	
8.4800	-17.466502	-37.483636	60.862158	-44.725651	783.489011	11.067958	8.212804	-45.000000	36.407273	-45.000000	-45.000000	-2257.068722	-1738.513174	27.143749	76.767834	1809.202577	30.451509	17.407034	10.856352	13.222898	37.161285	-28.752774	-45.000000	-45.000000	1876.543647	-3342.745459	139.626767	153.454607	366.908551	29.561151	8.412304	-18.807279	
8.4900	-17.548097	-37.413416	60.722394	-45.411363	783.194561	10.944001	8.210585	-45.000000	36.423406	-45.000000	-45.000000	-2257.092556	-1738.466855	27.189934	76.713630	1809.218851	30.536647	17.412657	10.856217	13.229483	37.137103	-28.804781	-45.000000	-45.000000	1876.628811	-3342.741077	139.601523	153.486764	366.893929	29.535362	8.417168	-18.814187	
8.5000	-17.639793	-37.337579	60.572941	-46.153393	782.905426	10.807299	8.207396	-45.000000	36.431571	-45.000000	-45.000000	-2257.120251	-1738.409297	27.247587	76.641798	1809.244921	30.618617	17.441567	10.842918	13.239469	37.137423	-28.854308	-45.000000	-45.000000	1876.707878	-3342.715170	139.583706	153.530050	366.887411	29.496163	8.420614	-18.820184	
8.5100	-17.743958	-37.257454	60.413752	-46.953620	782.621957	10.657033	8.204362	-45.000000	36.441083	-45.000000	-45.000000	-2257.154132	-1738.347626	27.314173	76.554775	1809.287473	30.699239	17.456798	10.831179	13.250200	37.117896	-28.920247	-45.000000	-45.000000	1876.815092	-3342.691888	139.554275	153.591542	366.872324	29.440662	8.428325	-18.824966	
8.5200	-17.858692	-37.167838	60.248057	-47.813283	782.343801	10.491731	8.199786	-45.000000	36.443188	-45.000000	-45.000000	-2257.194145	-1738.272870	27.388949	76.452278	1809.341002	30.773611	17.492679	10.806847	13.264180	37.125131	-28.982222	-45.000000	-45.000000	1876.915729	-3342.643967	139.530287	153.669752	366.867644	29.363427	8.436259	-18.829534	
8.5300	-17.985105	-37.072282	60.076344	-48.733491	782.070214	10.309966	8.194938	-45.000000	36.448500	-45.000000	-45.000000	-2257.235279	-1738.198946	27.465982	76.337039	1809.399755	30.844656	17.514522	10.784378	13.279604	37.116159	-29.058340	-45.000000	-45.000000	1877.035853	-3342.599744	139.499296	153.768431	366.844532	29.262836	8.451193	-18.830219	
8.5400	-18.120116	-36.965142	59.900105	-49.715786	781.800154	10.110716	8.189041	-45.000000	36.455053	-45.000000	-45.000000	-2257.271618	-1738.118611	27.542556	76.209322	1809.450757	30.910165	17.547938	10.755108	13.299119	37.128940	-29.131976	-45.000000	-45.000000	1877.142824	-3342.539399	139.477078	153.881093	366.816366	29.134095	8.471165	-18.828304	
8.5500	-18.266319	-36.849899	59.715524	-50.762039	781.532615	9.893620	8.182457	-45.000000	36.467278	-45.000000	-44.999999	-2257.304456	-1738.040204	27.622495	76.070950	1809.497156	30.971117	17.571286	10.727152	13.318752	37.129401	-29.216557	-45.000000	-45.000000	1877.263324	-3342.483365	139.448215	154.007629	366.765177	28.975603	8.500256	-18.821112	
